<svg width="512" height="512" fill="none" xmlns="http://www.w3.org/2000/svg"><path fill="#6126D9" d="M0 0h512v512H0z"/><path fill="#6126D9" d="M0 0h512v512H0z"/><path d="M46 233C46 104.318 150.318 0 279 0h233v233c0 128.682-104.318 233-233 233H46V233z" fill="#723DDF"/><path d="M112 200C112 89.543 201.543 0 312 0h15.242C429.281 0 512 82.719 512 184.758 512 303.633 415.633 400 296.758 400H112V200z" fill="#CFB7FE"/><path d="M203 200C203 89.543 292.543 0 403 0h109v154.5c0 85.328-69.172 154.5-154.5 154.5H203V200z" fill="#AF97E0"/></svg>