<svg width="512" height="512" fill="none" xmlns="http://www.w3.org/2000/svg"><path fill="#6126D9" d="M0 0h512v512H0z"/><path fill="#2D54D2" d="M0 0h512v512H0z"/><path fill="#5878A7" d="M0 0h85.3v256H0z"/><path fill="#A75878" d="M85 0h85.3v256H85z"/><path fill="#78A758" d="M170 0h85.3v256H170z"/><path fill="#5878A7" d="M256 255h85.3v256H256z"/><path fill="#A75878" d="M341 255h85.3v256H341z"/><path fill="#78A758" d="M426 255h85.3v256H426z"/><path fill="#5878A7" d="M0 341.301v-85.3h256v85.3z"/><path fill="#A75878" d="M0 426.301v-85.3h256v85.3z"/><path fill="#78A758" d="M0 511.301v-85.3h256v85.3z"/><path fill="#5878A7" d="M255 85.3V0h256v85.3z"/><path fill="#A75878" d="M255 170.301v-85.3h256v85.3z"/><path fill="#78A758" d="M255 255.301v-85.3h256v85.3z"/></svg>