<svg width="512" height="512" fill="none" xmlns="http://www.w3.org/2000/svg"><g clip-path="url(#prefix__clip0_184_133)"><path fill="#fff" d="M0 0h512v512H0z"/><path fill="#55F50A" d="M0 0h512v512H0z"/><path d="M295-104c0-27.614 22.386-50 50-50h131c72.349 0 131 58.65 131 131v127c0 27.614-22.386 50-50 50H345c-27.614 0-50-22.386-50-50v-208z" fill="#0B3286"/><g filter="url(#prefix__filter0_d_184_133)"><path d="M154-23c0-27.614 22.386-50 50-50h212c27.614 0 50 22.386 50 50v208c0 27.614-22.386 50-50 50H308c-85.052 0-154-68.948-154-154V-23z" fill="#0A55F5"/></g><g filter="url(#prefix__filter1_d_184_133)"><path d="M39 326c0-27.614 22.386-50 50-50h131c72.349 0 131 58.651 131 131v127c0 27.614-22.386 50-50 50H89c-27.614 0-50-22.386-50-50V326z" fill="#0A55F5"/></g><g filter="url(#prefix__filter2_d_184_133)"><path d="M-37 115c0-27.614 22.386-50 50-50h131c72.349 0 131 58.651 131 131v127c0 27.614-22.386 50-50 50H13c-27.614 0-50-22.386-50-50V115z" fill="#0B3286"/></g></g><defs><filter id="prefix__filter0_d_184_133" x="114" y="-113" width="412" height="408" filterUnits="userSpaceOnUse" color-interpolation-filters="sRGB"><feFlood flood-opacity="0" result="BackgroundImageFix"/><feColorMatrix in="SourceAlpha" values="0 0 0 0 0 0 0 0 0 0 0 0 0 0 0 0 0 0 127 0" result="hardAlpha"/><feOffset dx="10" dy="10"/><feGaussianBlur stdDeviation="25"/><feComposite in2="hardAlpha" operator="out"/><feColorMatrix values="0 0 0 0 0 0 0 0 0 0 0 0 0 0 0 0 0 0 0.25 0"/><feBlend in2="BackgroundImageFix" result="effect1_dropShadow_184_133"/><feBlend in="SourceGraphic" in2="effect1_dropShadow_184_133" result="shape"/></filter><filter id="prefix__filter1_d_184_133" x="-1" y="236" width="412" height="408" filterUnits="userSpaceOnUse" color-interpolation-filters="sRGB"><feFlood flood-opacity="0" result="BackgroundImageFix"/><feColorMatrix in="SourceAlpha" values="0 0 0 0 0 0 0 0 0 0 0 0 0 0 0 0 0 0 127 0" result="hardAlpha"/><feOffset dx="10" dy="10"/><feGaussianBlur stdDeviation="25"/><feComposite in2="hardAlpha" operator="out"/><feColorMatrix values="0 0 0 0 0 0 0 0 0 0 0 0 0 0 0 0 0 0 0.25 0"/><feBlend in2="BackgroundImageFix" result="effect1_dropShadow_184_133"/><feBlend in="SourceGraphic" in2="effect1_dropShadow_184_133" result="shape"/></filter><filter id="prefix__filter2_d_184_133" x="-77" y="25" width="412" height="408" filterUnits="userSpaceOnUse" color-interpolation-filters="sRGB"><feFlood flood-opacity="0" result="BackgroundImageFix"/><feColorMatrix in="SourceAlpha" values="0 0 0 0 0 0 0 0 0 0 0 0 0 0 0 0 0 0 127 0" result="hardAlpha"/><feOffset dx="10" dy="10"/><feGaussianBlur stdDeviation="25"/><feComposite in2="hardAlpha" operator="out"/><feColorMatrix values="0 0 0 0 0 0 0 0 0 0 0 0 0 0 0 0 0 0 0.25 0"/><feBlend in2="BackgroundImageFix" result="effect1_dropShadow_184_133"/><feBlend in="SourceGraphic" in2="effect1_dropShadow_184_133" result="shape"/></filter><clipPath id="prefix__clip0_184_133"><path fill="#fff" d="M0 0h512v512H0z"/></clipPath></defs></svg>